P1
# Created by GIMP version 2.10.18 PNM plug-in
8 8
0101000001010000111110000101000001010000111110000101000001010000