P1
# Created by GIMP version 2.10.18 PNM plug-in
8 8
0010000001110000101010000110000000110000101010000111000000100000