P1
# Created by GIMP version 2.10.18 PNM plug-in
8 8
1100100011010000000100000010000000100000010000000101100010011000