P1
# Created by GIMP version 2.10.18 PNM plug-in
8 8
0110000010010000100100001010000001000000101010001001000001101000