P1
# Created by GIMP version 2.10.18 PNM plug-in
8 8
0000000000100000001000001111100000100000001000000000000000000000