P1
# Created by GIMP version 2.10.18 PNM plug-in
8 8
0010000001100000001000000010000000100000001000000010000001110000