P1
# Created by GIMP version 2.10.18 PNM plug-in
8 8
0111000010001000000010000011000000001000000010001000100001110000