P1
# Created by GIMP version 2.10.18 PNM plug-in
8 8
0001000000110000010100000101000010010000111110000001000000010000