P1
# Created by GIMP version 2.10.18 PNM plug-in
8 8
1111100010000000100000001111000000001000000010001000100001110000