P1
# Created by GIMP version 2.10.18 PNM plug-in
8 8
1111100000001000000100000010000001000000010000000100000001000000