P1
# Created by GIMP version 2.10.18 PNM plug-in
8 8
0111000010001000101110001010100010101000101110001000000001110000