P1
# Created by GIMP version 2.10.18 PNM plug-in
8 8
0000000000000000000000000000000000000000000000000000000011111000