P1
# Created by GIMP version 2.10.18 PNM plug-in
8 8
0110000001100000000000000000000001100000011000000000000000000000