P1
# Created by GIMP version 2.10.18 PNM plug-in
8 8
1000100010001000100100001110000010010000100010001000100010001000