P1
# Created by GIMP version 2.10.18 PNM plug-in
8 8
1000100010001000100010001100100010101000100110001000100010001000