P1
# Created by GIMP version 2.10.18 PNM plug-in
8 8
0111100010000000100000000111000000001000000010000000100011110000