P1
# Created by GIMP version 2.10.18 PNM plug-in
8 8
0101000000100000010100000000000000000000000000000000000000000000