P1
# Created by GIMP version 2.10.18 PNM plug-in
8 8
0011100001000000010000001111000001000000010000000100000011111000